<svg id="Layer_1" data-name="Layer 1" xmlns="http://www.w3.org/2000/svg" viewBox="0 0 539.52 169.01"><defs><style>.cls-1{fill:#007447;stroke:#000;stroke-miterlimit:10;}.cls-2{fill:#6fb544;fill-opacity:0.5;}.cls-2,.cls-3,.cls-4{fill-rule:evenodd;}.cls-3{fill:#69bd45;}.cls-5{fill:#f8971d;}</style></defs><path class="cls-1" d="M149.19,62.1a68.35,68.35,0,1,1-129.38,0c31.25,8.65,57.5,35.81,64.69,67.42C91.69,97.91,118,70.75,149.19,62.1Z" transform="translate(0 0)"/><path class="cls-2" d="M130.26,88.56a48.35,48.35,0,1,1-91.52,0c22.1,6.12,40.67,25.33,45.75,47.69,5.09-22.36,23.66-41.57,45.77-47.69Z" transform="translate(0 0)"/><path class="cls-3" d="M114.17,111.06a31.35,31.35,0,1,1-59.34,0C69.16,115,81.2,127.48,84.5,142,87.79,127.48,99.84,115,114.17,111.06Z" transform="translate(0 0)"/><path class="cls-4" d="M84.5,0A84.51,84.51,0,1,0,169,84.51,84.55,84.55,0,0,0,84.5,0Zm0,7A77.5,77.5,0,1,1,7,84.51,77.54,77.54,0,0,1,84.5,7Z" transform="translate(0 0)"/><circle class="cls-5" cx="84.5" cy="62" r="22.5"/><path d="M224.7,76.36h-7.92a12.19,12.19,0,0,0-.88-3.52,8.93,8.93,0,0,0-1.72-2.64,7.28,7.28,0,0,0-2.41-1.68,7.57,7.57,0,0,0-3-.58,7.44,7.44,0,0,0-5,1.83,11.75,11.75,0,0,0-3.31,5.3,26.63,26.63,0,0,0-1.17,8.43,26.71,26.71,0,0,0,1.18,8.56,11.4,11.4,0,0,0,3.32,5.23,7.48,7.48,0,0,0,4.93,1.77,8,8,0,0,0,2.92-.53A7,7,0,0,0,214.07,97a8.83,8.83,0,0,0,1.75-2.53,12,12,0,0,0,1-3.39l7.92,0a22.82,22.82,0,0,1-1.53,6.32,19.17,19.17,0,0,1-3.27,5.42,15.08,15.08,0,0,1-4.88,3.76,14.21,14.21,0,0,1-6.38,1.39,14.44,14.44,0,0,1-8.85-2.89,19,19,0,0,1-6.14-8.35A34.72,34.72,0,0,1,191.4,83.5a34.67,34.67,0,0,1,2.27-13.26,19.2,19.2,0,0,1,6.18-8.33A14.45,14.45,0,0,1,208.64,59a15.14,15.14,0,0,1,6,1.17,14.53,14.53,0,0,1,4.88,3.38A17.24,17.24,0,0,1,223,69,24.63,24.63,0,0,1,224.7,76.36Z" transform="translate(0 0)"/><path d="M248,92.11V71.59h7.7v35.73h-7.39v-6.49H248a10.58,10.58,0,0,1-3.12,5,8.25,8.25,0,0,1-10.2.28,10.51,10.51,0,0,1-3.3-4.62,20,20,0,0,1-1.2-7.19V71.59h7.7v21a8.55,8.55,0,0,0,1.32,5,4.06,4.06,0,0,0,3.49,1.84,4.56,4.56,0,0,0,2.6-.83,5.89,5.89,0,0,0,2-2.45A9.47,9.47,0,0,0,248,92.11Z" transform="translate(0 0)"/><path d="M269.51,59.69v47.63h-7.7V59.69Z" transform="translate(0 0)"/><path d="M290.41,71.59V79H273.7V71.59ZM277.49,63h7.7V96.34a5.52,5.52,0,0,0,.33,2.13,2.05,2.05,0,0,0,.91,1.06,2.93,2.93,0,0,0,1.36.3,4.51,4.51,0,0,0,1.09-.13l.83-.2,1.21,7.38c-.39.15-.93.33-1.63.54a10.4,10.4,0,0,1-2.54.38,9.22,9.22,0,0,1-4.87-1,7.48,7.48,0,0,1-3.25-3.39,12.85,12.85,0,0,1-1.14-5.82Z" transform="translate(0 0)"/><path d="M299.28,67a3.69,3.69,0,0,1-2.93-1.47A5.28,5.28,0,0,1,295.13,62a5.38,5.38,0,0,1,1.23-3.55,3.65,3.65,0,0,1,5.86,0,5.75,5.75,0,0,1,0,7.08A3.67,3.67,0,0,1,299.28,67Zm-3.86,40.33V71.59h7.7v35.73Z" transform="translate(0 0)"/><path d="M335.13,71.59l-9.7,35.73h-8.67l-9.71-35.73h8.13L321,97.15h.29L327,71.59Z" transform="translate(0 0)"/><path d="M346.21,108a9.33,9.33,0,0,1-4.74-1.2,8.27,8.27,0,0,1-3.27-3.56A12.76,12.76,0,0,1,337,97.34a13,13,0,0,1,.85-5,8.43,8.43,0,0,1,2.32-3.26,10.07,10.07,0,0,1,3.33-1.86,20.06,20.06,0,0,1,3.93-.88c1.61-.22,2.91-.42,3.9-.62a4.56,4.56,0,0,0,2.15-.87,2.15,2.15,0,0,0,.67-1.72V83a5,5,0,0,0-1.07-3.42A3.87,3.87,0,0,0,350,78.36a4.58,4.58,0,0,0-3.31,1.18,5.69,5.69,0,0,0-1.62,2.94L338,81.73a14.23,14.23,0,0,1,2.13-5.64,10.75,10.75,0,0,1,4.11-3.67,12.67,12.67,0,0,1,5.85-1.29,13.93,13.93,0,0,1,4.43.7A10.47,10.47,0,0,1,358.27,74a10.26,10.26,0,0,1,2.61,3.75,14.17,14.17,0,0,1,1,5.48v24.1h-7.3v-5h-.22a9.7,9.7,0,0,1-1.79,2.94,7.68,7.68,0,0,1-2.69,2A8.81,8.81,0,0,1,346.21,108Zm2.2-6.84a5.28,5.28,0,0,0,3-.87,6,6,0,0,0,2-2.36,7.52,7.52,0,0,0,.74-3.37V90.76a3.49,3.49,0,0,1-1,.54,12.17,12.17,0,0,1-1.4.45c-.52.13-1,.24-1.55.34s-1,.19-1.41.27a7.61,7.61,0,0,0-2.37.82,4,4,0,0,0-1.57,1.5,4.49,4.49,0,0,0-.56,2.33,4,4,0,0,0,1.15,3.08A4.09,4.09,0,0,0,348.41,101.15Z" transform="translate(0 0)"/><path d="M400.88,74.57h-4.41a13,13,0,0,0-.79-4.37A9.52,9.52,0,0,0,393.74,67,8.27,8.27,0,0,0,391,65.08a8.78,8.78,0,0,0-3.36-.65,10.9,10.9,0,0,0-6.51,2.24,17.94,17.94,0,0,0-5.26,6.59,32.88,32.88,0,0,0-3,10.61,28.09,28.09,0,0,0,.24,10.26,12,12,0,0,0,3.41,6.3,8.19,8.19,0,0,0,5.67,2.14,11.24,11.24,0,0,0,3.74-.65,11.63,11.63,0,0,0,3.43-1.94,13.79,13.79,0,0,0,2.85-3.19,15.7,15.7,0,0,0,2-4.36h4.48A26.6,26.6,0,0,1,396,99a20.85,20.85,0,0,1-3.89,4.89,16.22,16.22,0,0,1-4.76,3.06,13.72,13.72,0,0,1-5.29,1,11.78,11.78,0,0,1-8.18-3,17,17,0,0,1-4.8-8.6,35.23,35.23,0,0,1-.46-13.2,39.14,39.14,0,0,1,3.74-12.85A23,23,0,0,1,379.09,62,14.56,14.56,0,0,1,387.8,59a12.67,12.67,0,0,1,5.19,1,11.72,11.72,0,0,1,4.12,3.06A14.55,14.55,0,0,1,399.85,68,21.17,21.17,0,0,1,400.88,74.57Z" transform="translate(0 0)"/><path d="M403.34,107.32,408,71.59h4.26l-4.62,35.73Zm8.06-41.77a2.7,2.7,0,0,1-2.14-1.1,4.32,4.32,0,0,1,0-5.25,2.63,2.63,0,0,1,4.28,0,4.28,4.28,0,0,1,0,5.25A2.68,2.68,0,0,1,411.4,65.55Z" transform="translate(0 0)"/><path d="M427,108.06a9.6,9.6,0,0,1-6.59-2.29,12.15,12.15,0,0,1-3.63-6.42,26,26,0,0,1-.33-9.62,30.38,30.38,0,0,1,2.8-9.68,18.17,18.17,0,0,1,5.23-6.56,11.14,11.14,0,0,1,6.86-2.36,9.76,9.76,0,0,1,4.17.93,8.77,8.77,0,0,1,3.48,3,13.52,13.52,0,0,1,2,5.5,29.07,29.07,0,0,1-.08,8.42l-.29,2.33H419.24l.58-4.75h17.06a14.08,14.08,0,0,0-.21-5.4,7.45,7.45,0,0,0-2.15-3.74,5.59,5.59,0,0,0-3.86-1.37,7,7,0,0,0-4.48,1.66,13.87,13.87,0,0,0-3.47,4.19A14.44,14.44,0,0,0,421,87l-.51,4.09a19.27,19.27,0,0,0,.17,7.07,6.23,6.23,0,0,0,2.5,3.78,8.13,8.13,0,0,0,4.48,1.15,8,8,0,0,0,3.17-.62,7.45,7.45,0,0,0,2.58-1.86,10.61,10.61,0,0,0,1.92-3.1l3.9,1.49a14.72,14.72,0,0,1-2.79,4.73,12.85,12.85,0,0,1-4.19,3.16A12.17,12.17,0,0,1,427,108.06Zm8.32-40.75-2.93-6.51-4.59,6.51h-4l0-.37,7.08-9.67h3.9l4.63,9.67,0,.37Z" transform="translate(0 0)"/><path d="M452.13,85.83l-2.75,21.49h-4.26l4.62-35.73h4.12l-.72,5.58h.36A11.68,11.68,0,0,1,457,72.79a8.69,8.69,0,0,1,5.37-1.66,7.56,7.56,0,0,1,4.71,1.47,8,8,0,0,1,2.72,4.47,19.76,19.76,0,0,1,.23,7.55l-3,22.7h-4.27L465.71,85c.37-2.79.08-5-.83-6.56a4.7,4.7,0,0,0-4.37-2.37,6.8,6.8,0,0,0-3.8,1.14,9.07,9.07,0,0,0-2.95,3.32A15.43,15.43,0,0,0,452.13,85.83Z" transform="translate(0 0)"/><path d="M486.1,108.06a9,9,0,0,1-6.43-2.37,12.73,12.73,0,0,1-3.48-6.54,27,27,0,0,1-.29-9.51A29.58,29.58,0,0,1,478.69,80a18.1,18.1,0,0,1,5.22-6.53,11.18,11.18,0,0,1,6.88-2.36,8.85,8.85,0,0,1,8.44,5.3,13,13,0,0,1,1.1,5.86h-4.26A8,8,0,0,0,494.45,78a5,5,0,0,0-4.24-1.89,7.22,7.22,0,0,0-4.59,1.66,12.93,12.93,0,0,0-3.52,4.68,23.18,23.18,0,0,0-1.93,7.06,21.94,21.94,0,0,0,.09,7.2,9.37,9.37,0,0,0,2.29,4.77,5.64,5.64,0,0,0,4.2,1.7,6.75,6.75,0,0,0,3.1-.74,8,8,0,0,0,2.57-2.14,10.57,10.57,0,0,0,1.77-3.35h4.26a17.33,17.33,0,0,1-2.54,5.68,13.47,13.47,0,0,1-4.25,4A10.66,10.66,0,0,1,486.1,108.06Z" transform="translate(0 0)"/><path d="M503.29,107.32l4.63-35.73h4.27l-4.63,35.73Zm8.06-41.77a2.7,2.7,0,0,1-2.14-1.1,4.32,4.32,0,0,1,0-5.25,2.64,2.64,0,0,1,4.29,0,4.32,4.32,0,0,1,0,5.25A2.7,2.7,0,0,1,511.35,65.55Z" transform="translate(0 0)"/><path d="M523.46,108.15a8.27,8.27,0,0,1-4.62-1.29,7.61,7.61,0,0,1-3-3.74,12.14,12.14,0,0,1-.52-5.94,12.59,12.59,0,0,1,1.6-5,9.61,9.61,0,0,1,2.91-3,13.42,13.42,0,0,1,3.68-1.65,37.67,37.67,0,0,1,4-.85c1.71-.28,3.1-.49,4.17-.65a6.1,6.1,0,0,0,2.42-.76,2.48,2.48,0,0,0,1-1.84v-.19a8.36,8.36,0,0,0-.71-5.34c-.76-1.28-2.11-1.91-4.06-1.91a7.59,7.59,0,0,0-5.08,1.72,11.68,11.68,0,0,0-3,3.67l-3.76-1.86A14.92,14.92,0,0,1,522,74.42a12.18,12.18,0,0,1,4.31-2.56,14.08,14.08,0,0,1,4.36-.73,13,13,0,0,1,3,.4A7.29,7.29,0,0,1,539.08,77a17.09,17.09,0,0,1,.21,6.79l-3,23.54H532l.65-4.84h-.22a11.64,11.64,0,0,1-1.76,2.49,10.3,10.3,0,0,1-3,2.25A9.08,9.08,0,0,1,523.46,108.15Zm1.23-4.93a7.69,7.69,0,0,0,4.43-1.28,9.74,9.74,0,0,0,3.08-3.3,11.47,11.47,0,0,0,1.45-4.26l.65-5a2.78,2.78,0,0,1-1.28.76,16.75,16.75,0,0,1-2.16.58c-.8.16-1.58.3-2.33.42l-1.82.29a14.87,14.87,0,0,0-3.22.89,6.61,6.61,0,0,0-2.57,1.84,6.18,6.18,0,0,0-1.29,3.32,4.89,4.89,0,0,0,1.07,4.31A5.36,5.36,0,0,0,524.69,103.22Z" transform="translate(0 0)"/><text/></svg>