<svg id="Layer_1" data-name="Layer 1" xmlns="http://www.w3.org/2000/svg" viewBox="0 0 169.01 169.01">
	<defs>
		<style>
			.cls-1{fill:#007447;stroke:#000;stroke-miterlimit:10;}.cls-2{fill:#6fb544;fill-opacity:0.5;}.cls-2,.cls-3,.cls-4{fill-rule:evenodd;}.cls-3{fill:#69bd45;}.cls-5{fill:#f8971d;}
		</style>
	</defs>
	<path class="cls-1" d="M149.19,62.1a68.35,68.35,0,1,1-129.38,0c31.25,8.65,57.5,35.81,64.69,67.42C91.69,97.91,118,70.75,149.19,62.1Z" transform="translate(0 0)" />
	<path class="cls-2" d="M130.26,88.56a48.35,48.35,0,1,1-91.52,0c22.1,6.12,40.67,25.33,45.75,47.69,5.09-22.36,23.66-41.57,45.77-47.69Z" transform="translate(0 0)" />
	<path class="cls-3" d="M114.17,111.06a31.35,31.35,0,1,1-59.34,0C69.16,115,81.2,127.48,84.5,142,87.79,127.48,99.84,115,114.17,111.06Z" transform="translate(0 0)" />
	<path class="cls-4" d="M84.5,0A84.51,84.51,0,1,0,169,84.51,84.55,84.55,0,0,0,84.5,0Zm0,7A77.5,77.5,0,1,1,7,84.51,77.54,77.54,0,0,1,84.5,7Z" transform="translate(0 0)" />
	<circle class="cls-5" cx="84.5" cy="62" r="22.5" />
</svg>
